<svg xmlns="http://www.w3.org/2000/svg" viewBox="0 0 606 511" width="606" height="511" role="img" aria-label="Lenguajes y herramientas" font-family="ui-sans-serif,-apple-system,Segoe UI,Helvetica,Arial,sans-serif"><text x="303.0" y="25" text-anchor="middle" font-size="15" font-weight="700" fill="#e6edf3">Lenguajes y herramientas</text><g transform="translate(351.5,289.0)"><polygon points="0.0,-212.0 201.6,-65.5 124.6,171.5 -124.6,171.5 -201.6,-65.5" fill="none" stroke="#30363d" stroke-width="1" opacity="0.85"/><polygon points="0.0,-159.0 151.2,-49.1 93.5,128.6 -93.5,128.6 -151.2,-49.1" fill="none" stroke="#30363d" stroke-width="1" opacity="0.72"/><polygon points="0.0,-106.0 100.8,-32.8 62.3,85.8 -62.3,85.8 -100.8,-32.8" fill="none" stroke="#30363d" stroke-width="1" opacity="0.60"/><polygon points="0.0,-53.0 50.4,-16.4 31.2,42.9 -31.2,42.9 -50.4,-16.4" fill="none" stroke="#30363d" stroke-width="1" opacity="0.47"/><line x1="0" y1="0" x2="0.0" y2="-212.0" stroke="#21262d" stroke-width="1"/><line x1="0" y1="0" x2="201.6" y2="-65.5" stroke="#21262d" stroke-width="1"/><line x1="0" y1="0" x2="124.6" y2="171.5" stroke="#21262d" stroke-width="1"/><line x1="0" y1="0" x2="-124.6" y2="171.5" stroke="#21262d" stroke-width="1"/><line x1="0" y1="0" x2="-201.6" y2="-65.5" stroke="#21262d" stroke-width="1"/><g><animateTransform attributeName="transform" type="scale" values="0.04;1" dur="1.1s" calcMode="spline" keyTimes="0;1" keySplines="0.22 1 0.36 1" fill="freeze"/><polygon points="0.0,-190.8 161.3,-52.4 112.1,154.4 -99.7,137.2 -161.3,-52.4" fill="#e3b341" fill-opacity="0.22" stroke="#e3b341" stroke-width="2.5" stroke-linejoin="round"/><circle cx="0.0" cy="-190.8" r="3.6" fill="#e3b341" stroke="#e3b341" stroke-width="1.2"/><circle cx="161.3" cy="-52.4" r="3.6" fill="#e3b341" stroke="#e3b341" stroke-width="1.2"/><circle cx="112.1" cy="154.4" r="3.6" fill="#e3b341" stroke="#e3b341" stroke-width="1.2"/><circle cx="-99.7" cy="137.2" r="3.6" fill="#e3b341" stroke="#e3b341" stroke-width="1.2"/><circle cx="-161.3" cy="-52.4" r="3.6" fill="#e3b341" stroke="#e3b341" stroke-width="1.2"/></g><text x="0.0" y="-237.0" text-anchor="middle" font-size="13" font-weight="600" fill="#c9d1d9">Python</text><text x="220.6" y="-76.7" text-anchor="start" font-size="13" font-weight="600" fill="#c9d1d9">C++</text><text x="136.4" y="201.7" text-anchor="start" font-size="13" font-weight="600" fill="#c9d1d9">Java</text><text x="-136.4" y="201.7" text-anchor="end" font-size="13" font-weight="600" fill="#c9d1d9">R / estadística</text><text x="-220.6" y="-76.7" text-anchor="end" font-size="13" font-weight="600" fill="#c9d1d9">JavaScript / TS</text></g></svg>